<svg xmlns="http://www.w3.org/2000/svg" width="1024" height="1024">
  <rect width="100%" height="100%" fill="#0f111a"/>
  <rect x="180" y="160" width="580" height="580" rx="80" fill="#0a7cff"/>
  <rect x="230" y="210" width="38" height="38" rx="10" fill="#0f111a" fill-opacity="0.35"/>
  <rect x="470" y="210" width="38" height="38" rx="10" fill="#0f111a" fill-opacity="0.35"/>
  <rect x="690" y="210" width="38" height="38" rx="10" fill="#0f111a" fill-opacity="0.35"/>
  <rect x="230" y="380" width="38" height="38" rx="10" fill="#0f111a" fill-opacity="0.35"/>
  <rect x="470" y="380" width="38" height="38" rx="10" fill="#0f111a" fill-opacity="0.35"/>
  <rect x="690" y="380" width="38" height="38" rx="10" fill="#0f111a" fill-opacity="0.35"/>
  <rect x="230" y="550" width="38" height="38" rx="10" fill="#0f111a" fill-opacity="0.35"/>
  <rect x="470" y="550" width="38" height="38" rx="10" fill="#0f111a" fill-opacity="0.35"/>
  <rect x="690" y="550" width="38" height="38" rx="10" fill="#0f111a" fill-opacity="0.35"/>
  <rect x="550" y="420" width="300" height="460" rx="40" fill="#1e2636"/>
  <rect x="640" y="510" width="50" height="50" fill="#ebf2ff"/>
  <rect x="650" y="520" width="30" height="240" fill="#ebf2ff"/>
  <polygon points="720,820 780,690 730,690 800,560 700,760 750,760" fill="#0a7cff"/>
  <text x="512" y="940" font-family="DejaVu Sans, Arial" font-weight="bold" font-size="78" fill="#ebf2ff" text-anchor="middle">Local Bite Boost</text>
</svg>